{"title":"WWE.Hell.in.a.Cell.2014.10.26.HDTV.XviD-FICEK9","uid":11672217,"size":1565779236,"categoryP":"video","categoryS":"tv_shows","magnet":"?xt=urn:btih:27ec56e4a3c2c3cb83d6edb0168d3eeb3db6323b&amp;dn=WWE.Hell.in.a.Cell.2014.10.26.HDTV.XviD-FICEK9&amp;tr=udp%3A%2F%2Ftracker.openbittorrent.com%3A80&amp;tr=udp%3A%2F%2Fopen.demonii.com%3A1337&amp;tr=udp%3A%2F%2Ftracker.coppersurfer.tk%3A6969&amp;tr=udp%3A%2F%2Fexodus.desync.com%3A6969","seeders":1,"leechers":1,"uploader":"FICEK9","files":2,"time":1422731523,"description":"\n   General\n      Complete name : WWE.Hell.in.a.Cell.2014.10.26.HDTV.XviD-FICEK9.avi\n      Format : AVI\n      Format/Info : Audio Video Interleave\n      Format profile : OpenDML\n      File size : 1.46 GiB\n      Duration : 2h 56mn\n      Overall bit rate mode : Variable\n      Overall bit rate : 1 184 Kbps\n      Writing application : MEncoder SVN-r33883(20110719-gcc4.5.2)\n      Writing library : MPlayer\n   Video #0\n      ID : 0\n      Format : MPEG-4 Visual\n      Format profile : Advanced Simple@L5\n      Format settings, BVOP : 2\n      Format settings, QPel : No\n      Format settings, GMC : No warppoints\n      Format settings, Matrix : Default (H.263)\n      Codec ID : XVID\n      Codec ID/Hint : XviD\n      Duration : 2h 56mn\n      Bit rate : 1 046 Kbps\n      Width : 624 pixels\n      Height : 352 pixels\n      Display aspect ratio : 16:9\n      Frame rate : 29.970 fps\n      Color space : YUV\n      Chroma subsampling : 4:2:0\n      Bit depth : 8 bits\n      Scan type : Progressive\n      Compression mode : Lossy\n      Bits/(Pixel*Frame) : 0.159\n      Stream size : 1.29 GiB (88%)\n      Writing library : XviD 1.2.1 (UTC 2008-12-04)\n   Audio #1\n      ID : 1\n      Format : MPEG Audio\n      Format version : Version 1\n      Format profile : Layer 3\n      Mode : Joint stereo\n      Mode extension : MS Stereo\n      Codec ID : 55\n      Codec ID/Hint : MP3\n      Duration : 2h 56mn\n      Bit rate mode : Variable\n      Bit rate : 123 Kbps\n      Channel(s) : 2 channels\n      Sampling rate : 48.0 KHz\n      Compression mode : Lossy\n      Stream size : 155 MiB (10%)\n      Alignment : Aligned on interleaves\n      Interleave, duration : 24 ms (0.72 video frame)\n      Interleave, preload duration : 529 ms","torrent":{"xt":"urn:btih:27ec56e4a3c2c3cb83d6edb0168d3eeb3db6323b","amp;dn":"WWE.Hell.in.a.Cell.2014.10.26.HDTV.XviD-FICEK9","amp;tr":["udp%3A%2F%2Ftracker.openbittorrent.com%3A80","udp%3A%2F%2Fopen.demonii.com%3A1337","udp%3A%2F%2Ftracker.coppersurfer.tk%3A6969","udp%3A%2F%2Fexodus.desync.com%3A6969"],"infoHash":"27ec56e4a3c2c3cb83d6edb0168d3eeb3db6323b","infoHashBuffer":{"type":"Buffer","data":[39,236,86,228,163,194,195,203,131,214,237,176,22,141,62,235,61,182,50,59]},"announce":[],"urlList":[]}}